<svg width="28" height="28" viewBox="0 0 28 28" fill="none" xmlns="http://www.w3.org/2000/svg">
<path d="M5.25 26.25H15.75C16.214 26.2495 16.6588 26.065 16.9869 25.7369C17.315 25.4088 17.4995 24.964 17.5 24.5V21.875H15.75V24.5H5.25V3.5H15.75V6.125H17.5V3.5C17.4995 3.03601 17.315 2.59116 16.9869 2.26307C16.6588 1.93499 16.214 1.75046 15.75 1.75H5.25C4.78601 1.75046 4.34116 1.93499 4.01307 2.26307C3.68499 2.59116 3.50046 3.03601 3.5 3.5V24.5C3.50046 24.964 3.68499 25.4088 4.01307 25.7369C4.34116 26.065 4.78601 26.2495 5.25 26.25Z" fill="#F8F8F8"/>
<path d="M18.0128 18.0128L21.1505 14.875H8.75V13.125H21.1505L18.0128 9.98725L19.25 8.75L24.5 14L19.25 19.25L18.0128 18.0128Z" fill="#F8F8F8"/>
</svg>
