<svg width="30" height="30" viewBox="0 0 30 30" fill="none" xmlns="http://www.w3.org/2000/svg">
<g clip-path="url(#clip0_322_14)">
<path d="M15 5.59998C14.0556 5.59998 13.1324 5.88002 12.3472 6.40471C11.5619 6.92939 10.9499 7.67515 10.5885 8.54766C10.2271 9.42018 10.1325 10.3803 10.3168 11.3065C10.501 12.2328 10.9558 13.0836 11.6236 13.7514C12.2914 14.4192 13.1422 14.874 14.0685 15.0582C14.9947 15.2425 15.9548 15.1479 16.8273 14.7865C17.6998 14.4251 18.4456 13.8131 18.9703 13.0278C19.495 12.2426 19.775 11.3194 19.775 10.375C19.775 9.10857 19.2719 7.89403 18.3764 6.99854C17.481 6.10305 16.2664 5.59998 15 5.59998V5.59998ZM15 13.4833C14.3852 13.4833 13.7843 13.301 13.2731 12.9595C12.7619 12.6179 12.3635 12.1325 12.1283 11.5645C11.893 10.9965 11.8315 10.3715 11.9514 9.76857C12.0713 9.16561 12.3674 8.61176 12.8021 8.17705C13.2368 7.74234 13.7906 7.4463 14.3936 7.32637C14.9966 7.20643 15.6215 7.26799 16.1895 7.50325C16.7575 7.73851 17.2429 8.13692 17.5845 8.64808C17.926 9.15924 18.1083 9.76021 18.1083 10.375C18.1061 11.1979 17.7777 11.9864 17.195 12.5675C16.6123 13.1486 15.8229 13.475 15 13.475V13.4833Z" fill="#F8F8F8"/>
<path d="M15 1.66669C12.4043 1.66885 9.91497 2.69809 8.07566 4.5296C6.23634 6.36111 5.19653 8.84605 5.18332 11.4417C5.18332 15.3334 7.36665 18.5917 8.96665 20.9667L9.25832 21.4C10.8502 23.7072 12.558 25.9323 14.375 28.0667L15.0083 28.8084L15.6417 28.0667C17.4584 25.9321 19.1662 23.707 20.7583 21.4L21.05 20.9584C22.6417 18.5834 24.825 15.3334 24.825 11.4417C24.8118 8.84461 23.7708 6.35841 21.9297 4.52666C20.0886 2.69492 17.5971 1.66665 15 1.66669V1.66669ZM19.6583 20L19.3583 20.4417C17.925 22.5917 16.025 25 15 26.1917C14.0167 25 12.075 22.5917 10.6417 20.4417L10.35 20C8.87499 17.8 6.84999 14.7917 6.84999 11.4084C6.84999 10.3381 7.06079 9.27829 7.47037 8.28948C7.87994 7.30068 8.48027 6.40223 9.23707 5.64543C9.99386 4.88864 10.8923 4.28831 11.8811 3.87874C12.8699 3.46916 13.9297 3.25835 15 3.25835C16.0703 3.25835 17.1301 3.46916 18.1189 3.87874C19.1077 4.28831 20.0061 4.88864 20.7629 5.64543C21.5197 6.40223 22.12 7.30068 22.5296 8.28948C22.9392 9.27829 23.15 10.3381 23.15 11.4084C23.15 14.825 21.1333 17.8334 19.6583 20V20Z" fill="#F8F8F8"/>
</g>
<defs>
<clipPath id="clip0_322_14">
<rect width="30" height="30" fill="white"/>
</clipPath>
</defs>
</svg>
