<svg width="29" height="29" viewBox="0 0 29 29" fill="none" xmlns="http://www.w3.org/2000/svg">
<path d="M19.0313 16.3125C18.7909 16.3125 18.5604 16.408 18.3904 16.5779C18.2205 16.7479 18.125 16.9784 18.125 17.2188C18.125 17.4591 18.2205 17.6896 18.3904 17.8596C18.5604 18.0295 18.7909 18.125 19.0313 18.125H21.75C21.9904 18.125 22.2209 18.0295 22.3908 17.8596C22.5608 17.6896 22.6563 17.4591 22.6563 17.2188C22.6563 16.9784 22.5608 16.7479 22.3908 16.5779C22.2209 16.408 21.9904 16.3125 21.75 16.3125H19.0313ZM2.71875 5.4375C2.71875 4.71644 3.00519 4.02492 3.51506 3.51505C4.02492 3.00519 4.71644 2.71875 5.4375 2.71875H20.6172C21.3983 2.71875 22.1475 3.02906 22.6998 3.58141C23.2522 4.13377 23.5625 4.88292 23.5625 5.66406V6.57575C25.1466 7.13581 26.2813 8.64653 26.2813 10.4219V22.2031C26.2813 23.2847 25.8516 24.322 25.0868 25.0868C24.322 25.8516 23.2847 26.2812 22.2031 26.2812H6.79688C5.71529 26.2812 4.678 25.8516 3.91321 25.0868C3.14841 24.322 2.71875 23.2847 2.71875 22.2031V5.66406H2.72781C2.72169 5.5887 2.71866 5.51311 2.71875 5.4375V5.4375ZM22.2031 8.15625H4.53125V22.2031C4.53125 22.804 4.76995 23.3803 5.19484 23.8052C5.61973 24.2301 6.196 24.4688 6.79688 24.4688H22.2031C22.804 24.4688 23.3803 24.2301 23.8052 23.8052C24.2301 23.3803 24.4688 22.804 24.4688 22.2031V10.4219C24.4688 9.82099 24.2301 9.24472 23.8052 8.81984C23.3803 8.39495 22.804 8.15625 22.2031 8.15625V8.15625ZM21.75 5.66406C21.75 5.03875 21.2425 4.53125 20.6172 4.53125H5.4375C5.19715 4.53125 4.96664 4.62673 4.79669 4.79668C4.62673 4.96664 4.53125 5.19715 4.53125 5.4375C4.53125 5.67785 4.62673 5.90836 4.79669 6.07832C4.96664 6.24827 5.19715 6.34375 5.4375 6.34375H21.75V5.66406Z" fill="#F8F8F8"/>
</svg>
