<svg width="35" height="35" viewBox="0 0 35 35" fill="none" xmlns="http://www.w3.org/2000/svg">
<path fill-rule="evenodd" clip-rule="evenodd" d="M23.1474 9.39635L19.5563 10.4755L21.9479 16.7303C23.3892 16.3773 24.9108 16.5868 26.203 17.3161C27.4952 18.0455 28.461 19.2399 28.9036 20.6562C29.3462 22.0725 29.2324 23.6042 28.5854 24.9396C27.9384 26.275 26.8068 27.3136 25.421 27.844C24.0352 28.3745 22.4993 28.3568 21.1261 27.7948C19.7528 27.2327 18.6453 26.1684 18.0292 24.8185C17.413 23.4686 17.3344 21.9347 17.8094 20.5289C18.2843 19.1231 19.2772 17.9512 20.5858 17.2517L19.3842 14.109L15.241 22.7146C15.1813 22.8382 15.0879 22.9425 14.9716 23.0153C14.8552 23.0882 14.7206 23.1268 14.5833 23.1266H11.6215C11.4343 24.5975 10.6941 25.942 9.5512 26.8867C8.40834 27.8315 6.94862 28.3056 5.46873 28.2128C3.98884 28.1199 2.59984 27.4671 1.58403 26.3869C0.568221 25.3067 0.00183969 23.8802 1.61937e-06 22.3974C-0.00110393 20.9128 0.563894 19.4836 1.57987 18.4011C2.59585 17.3186 3.98635 16.6641 5.46805 16.5712C6.94975 16.4782 8.41115 16.9537 9.55446 17.9007C10.6978 18.8478 11.437 20.1951 11.6215 21.6682H13.4444L9.88604 11.7049C9.858 11.6263 9.84369 11.5434 9.84375 11.4599H8.75C8.55661 11.4599 8.37115 11.3831 8.2344 11.2463C8.09766 11.1096 8.02083 10.9241 8.02083 10.7307C8.02083 10.5373 8.09766 10.3519 8.2344 10.2151C8.37115 10.0784 8.55661 10.0016 8.75 10.0016H12.0313C12.2246 10.0016 12.4101 10.0784 12.5469 10.2151C12.6836 10.3519 12.7604 10.5373 12.7604 10.7307C12.7604 10.9241 12.6836 11.1096 12.5469 11.2463C12.4101 11.3831 12.2246 11.4599 12.0313 11.4599H11.3473L12.6904 15.2202L18.6164 12.1016L17.9127 10.2619C17.8769 10.1682 17.8608 10.0681 17.8654 9.96793C17.87 9.86774 17.8953 9.76958 17.9395 9.67959C17.9838 9.5896 18.0462 9.5097 18.1227 9.44491C18.1993 9.38012 18.2884 9.33181 18.3845 9.30302L22.7281 8L23.1474 9.39635V9.39635ZM13.1855 16.6078L14.6234 20.6328L17.7078 14.2278L13.1855 16.6078V16.6078ZM22.6523 22.6577L21.1116 18.6276C20.1668 19.185 19.4658 20.077 19.1477 21.1269C18.8296 22.1767 18.9174 23.3077 19.3939 24.2959C19.8703 25.284 20.7006 26.057 21.7201 26.4619C22.7397 26.8667 23.8741 26.8737 24.8986 26.4816C25.9231 26.0895 26.7629 25.3268 27.2516 24.3446C27.7403 23.3625 27.8421 22.2327 27.5371 21.1789C27.232 20.1252 26.5422 19.2246 25.6044 18.6555C24.6666 18.0864 23.5492 17.8904 22.4736 18.1063L24.0144 22.1371C24.0803 22.317 24.0727 22.5157 23.9933 22.6901C23.9139 22.8645 23.769 23.0006 23.59 23.069C23.411 23.1374 23.2123 23.1326 23.0368 23.0556C22.8613 22.9787 22.7232 22.8357 22.6523 22.6577V22.6577ZM10.1478 21.6682H5.83333C5.63995 21.6682 5.45448 21.7451 5.31774 21.8818C5.18099 22.0185 5.10417 22.204 5.10417 22.3974C5.10417 22.5908 5.18099 22.7762 5.31774 22.913C5.45448 23.0497 5.63995 23.1266 5.83333 23.1266H10.1478C9.96206 24.2058 9.37847 25.1761 8.51223 25.8461C7.64599 26.5161 6.56006 26.8369 5.46882 26.7454C4.37757 26.6538 3.3603 26.1564 2.61782 25.3515C1.87535 24.5465 1.46163 23.4925 1.45833 22.3974C1.45733 21.2997 1.869 20.2418 2.61164 19.4334C3.35429 18.6251 4.37366 18.1255 5.4675 18.0337C6.56133 17.9419 7.64971 18.2647 8.51668 18.9379C9.38365 19.6112 9.96587 20.5857 10.1478 21.6682V21.6682Z" fill="#F8F8F8"/>
</svg>
