<svg width="25" height="27" viewBox="0 0 25 27" fill="none" xmlns="http://www.w3.org/2000/svg">
<path d="M24.2915 10.5966L13.2654 0.505158C12.9069 0.177092 12.4351 -0.000240061 11.9485 0.0102267C11.4618 0.0206935 10.9981 0.21815 10.6542 0.561322L0.528161 10.6657L0.0085054 11.1842L0.0198441 26.0688L9.785 26.0614L9.77793 16.7742L15.1044 16.7702L15.1115 26.0573L24.8766 26.0499L24.8652 11.1218L24.2915 10.5966ZM11.988 1.7788C12.0036 1.77879 11.994 1.78217 11.9873 1.78876C11.9803 1.78218 11.9723 1.77882 11.988 1.7788ZM23.0998 24.2823L16.8856 24.287L16.8799 16.7688C16.8795 16.2996 16.6921 15.8498 16.3589 15.5184C16.0257 15.1869 15.5739 15.0008 15.103 15.0012L9.77658 15.0052C9.3057 15.0056 8.85424 15.1923 8.52152 15.5243C8.18881 15.8563 8.00209 16.3064 8.00245 16.7756L8.00817 24.2937L1.79398 24.2985L1.78455 11.9156L11.988 1.81114C11.9887 1.81048 11.9888 1.80987 11.9893 1.80921L23.0904 11.8994L23.0998 24.2823Z" fill="white"/>
</svg>
